<svg xmlns="http://www.w3.org/2000/svg" viewBox="0 0 64 64" fill="none">
  <rect width="64" height="64" rx="18" fill="#fff7ed"/>
  <path d="M33 11c5.6 0 11.1 2.3 14.9 6.4 7.3 7.8 7.3 20.2 0 28-3.8 4.1-9.3 6.4-14.9 6.4s-11.1-2.3-14.9-6.4c-7.3-7.8-7.3-20.2 0-28C21.9 13.3 27.4 11 33 11Z" fill="#facc15"/>
  <path d="M41.8 17.4c1.2-2.5 3.7-4.1 6.5-4.1 1.3 0 2.6.4 3.7 1.1-1.5 2.7-4.3 4.4-7.4 4.4-1 0-1.9-.2-2.8-.5Z" fill="#65a30d"/>
  <path d="M24.8 38.2c2.3 3.3 5.7 5.2 10.2 5.2 4.8 0 8.6-2.3 11-6.2" stroke="#b45309" stroke-width="4" stroke-linecap="round"/>
  <circle cx="25" cy="28" r="3" fill="#78350f"/>
  <circle cx="39" cy="28" r="3" fill="#78350f"/>
</svg>