<svg xmlns="http://www.w3.org/2000/svg" viewBox="0 0 160 160" fill="none">
  <defs>
    <linearGradient id="bg" x1="12" y1="16" x2="144" y2="148" gradientUnits="userSpaceOnUse">
      <stop stop-color="#A7F3D0"/>
      <stop offset="1" stop-color="#059669"/>
    </linearGradient>
  </defs>
  <rect width="160" height="160" rx="40" fill="url(#bg)"/>
  <circle cx="80" cy="62" r="28" fill="#F2C09A"/>
  <path d="M50 58c5-14 15-21 30-21 16 0 26 7 30 21l-5 9H55l-5-9Z" fill="#0F172A"/>
  <path d="M46 150c4-26 20-43 34-43s30 17 34 43H46Z" fill="#065F46"/>
  <path d="M66 64h8M86 64h8" stroke="#111827" stroke-width="4" stroke-linecap="round"/>
  <path d="M72 80c3 2 13 2 16 0" stroke="#92400E" stroke-width="4" stroke-linecap="round"/>
  <path d="M104 58c6 2 10 10 8 16" stroke="#0F172A" stroke-width="5" stroke-linecap="round"/>
</svg>